HIERARCHY
ROOT root
{
	OFFSET 0.000000 0.000000 0.000000
	CHANNELS 6 Xposition Yposition Zposition Zrotation Yrotation Xrotation
	JOINT lhip
	{
		OFFSET 0.058581 -0.082280 -0.017664
		CHANNELS 3 Zrotation Yrotation Xrotation
		JOINT lknee
		{
			OFFSET 0.043451 -0.386469 0.008037
			CHANNELS 3 Zrotation Yrotation Xrotation
			JOINT lankle
			{
				OFFSET -0.014790 -0.426874 -0.037428
				CHANNELS 3 Zrotation Yrotation Xrotation
				JOINT ltoe
				{
					OFFSET 0.041054 -0.060286 0.122042
					CHANNELS 3 Zrotation Yrotation Xrotation
					End Site
					{
						OFFSET 0.000000 0.000000 0.000000
					}
				}
			}
		}
	}
	JOINT rhip
	{
		OFFSET -0.060310 -0.090513 -0.013543
		CHANNELS 3 Zrotation Yrotation Xrotation
		JOINT rknee
		{
			OFFSET -0.043257 -0.383688 -0.004843
			CHANNELS 3 Zrotation Yrotation Xrotation
			JOINT rankle
			{
				OFFSET 0.019056 -0.420046 -0.034562
				CHANNELS 3 Zrotation Yrotation Xrotation
				JOINT rtoe
				{
					OFFSET -0.034840 -0.062106 0.130323
					CHANNELS 3 Zrotation Yrotation Xrotation
					End Site
					{
						OFFSET 0.000000 0.000000 0.000000
					}
				}
			}
		}
	}
	JOINT lowerback
	{
		OFFSET 0.004439 0.124404 -0.038385
		CHANNELS 3 Zrotation Yrotation Xrotation
		JOINT upperback
		{
			OFFSET 0.004488 0.137956 0.026820
			CHANNELS 3 Zrotation Yrotation Xrotation
			JOINT chest
			{
				OFFSET -0.002265 0.056032 0.002855
				CHANNELS 3 Zrotation Yrotation Xrotation
				JOINT lowerneck
				{
					OFFSET -0.013390 0.211636 -0.033468
					CHANNELS 3 Zrotation Yrotation Xrotation
					JOINT upperneck
					{
						OFFSET 0.010113 0.088937 0.050410
						CHANNELS 3 Zrotation Yrotation Xrotation
						End Site
						{
							OFFSET 0.000000 0.000000 0.000000
						}
					}
				}
				JOINT lclavicle
				{
					OFFSET 0.071702 0.114000 -0.018898
					CHANNELS 3 Zrotation Yrotation Xrotation
					JOINT lshoulder
					{
						OFFSET 0.122921 0.045205 -0.019046
						CHANNELS 3 Zrotation Yrotation Xrotation
						JOINT lelbow
						{
							OFFSET 0.255332 -0.015649 -0.022946
							CHANNELS 3 Zrotation Yrotation Xrotation
							JOINT lwrist
							{
								OFFSET 0.265709 0.012698 -0.007375
								CHANNELS 3 Zrotation Yrotation Xrotation
								End Site
								{
									OFFSET 0.000000 0.000000 0.000000
								}
							}
						}
					}
				}
				JOINT rclavicle
				{
					OFFSET -0.082954 0.112472 -0.023707
					CHANNELS 3 Zrotation Yrotation Xrotation
					JOINT rshoulder
					{
						OFFSET -0.113228 0.046853 -0.008472
						CHANNELS 3 Zrotation Yrotation Xrotation
						JOINT relbow
						{
							OFFSET -0.260127 -0.014369 -0.031269
							CHANNELS 3 Zrotation Yrotation Xrotation
							JOINT rwrist
							{
								OFFSET -0.269108 0.006794 -0.006027
								CHANNELS 3 Zrotation Yrotation Xrotation
								End Site
								{
									OFFSET 0.000000 0.000000 0.000000
								}
							}
						}
					}
				}
			}
		}
	}
}
MOTION
Frames: 7
Frame Time: 0.033333
0.056699 0.242795 1.009665 86.803321 0.540638 89.650062 2.156910 3.597489 0.878588 2.017039 -3.137356 3.881739 0.651333 11.334647 -6.680746 0.000000 -0.000000 0.000000 -1.331654 -3.862613 -2.076880 -2.496649 0.700186 6.100601 2.280660 -7.645423 -3.143773 0.000000 -0.000000 0.000000 0.225686 2.287960 2.072346 3.666450 -4.291820 9.284912 0.327906 -0.085260 -7.302610 -1.182683 0.666837 -5.425448 0.558584 -0.675307 0.613335 -31.584667 -2.384947 0.304958 -51.637131 -3.297411 18.404292 5.018077 -17.417985 8.358034 -17.646649 -5.201372 12.958990 32.924255 5.288899 1.359942 45.850858 1.424763 13.144742 -9.058691 18.181172 -1.852862 17.393158 4.156541 8.025471 
0.056811 0.242567 1.009712 86.754655 0.500367 89.647762 2.137612 3.654753 0.906729 1.972555 -3.158797 3.886958 0.711759 11.356106 -6.590461 0.000000 -0.000000 0.000000 -1.360176 -3.841635 -2.033679 -2.510471 0.721269 6.029045 2.319202 -7.652458 -3.100355 0.000000 -0.000000 0.000000 0.163700 2.299721 2.097844 3.639614 -4.258932 9.293001 0.331969 -0.001265 -7.272795 -1.247608 0.673535 -5.371830 0.542941 -0.633750 0.659907 -31.652739 -2.294332 0.276425 -51.897725 -3.313251 18.346121 5.068799 -16.734234 7.964798 -17.731344 -5.122804 12.692196 32.980335 5.238599 1.444630 46.038427 1.345745 13.178450 -8.990225 17.674523 -2.001567 17.552176 4.136139 7.792775 
0.056891 0.242420 1.009646 86.781485 0.482929 89.663506 2.127441 3.615826 0.927151 1.994400 -3.152641 3.803271 0.635587 11.324370 -6.604264 0.000000 -0.000000 0.000000 -1.396607 -3.866186 -1.990332 -2.476721 0.720597 5.964197 2.347431 -7.610512 -3.103689 0.000000 -0.000000 0.000000 0.180134 2.319313 1.971495 3.591747 -4.254793 9.485677 0.314321 -0.008793 -7.242730 -1.285448 0.755503 -5.315654 0.496052 -0.685735 0.508883 -31.800224 -2.378128 0.411081 -51.960478 -3.434690 18.226820 5.072157 -16.482809 7.727743 -17.798013 -5.278676 12.720885 33.123980 5.392722 1.609683 46.159610 1.336184 13.181548 -9.002623 17.085983 -2.036775 17.502258 4.081935 7.946321 
0.056721 0.242159 1.009576 86.727899 0.461454 89.803852 2.113430 3.601540 0.740883 1.959964 -3.104062 3.858356 0.685566 11.339183 -6.588130 0.000000 -0.000000 0.000000 -1.387917 -3.885705 -2.185648 -2.497222 0.799778 6.006128 2.366497 -7.562116 -3.138635 0.000000 -0.000000 0.000000 0.127150 2.374993 1.873648 3.610489 -4.254052 9.539997 0.334577 0.060889 -7.339686 -1.378182 0.739093 -5.303147 0.529593 -0.680717 0.552501 -31.787502 -2.489248 0.487698 -52.200601 -3.411398 18.434362 5.140801 -16.406295 7.716594 -17.774984 -5.281149 12.815659 33.147701 5.524882 1.765194 46.326606 1.261062 13.231536 -8.913567 16.612018 -2.062219 17.458754 3.974265 7.916269 
0.056839 0.241931 1.009508 86.731119 0.443201 89.789873 2.115965 3.601415 0.729116 1.934127 -3.054979 3.968322 0.710149 11.325552 -6.603765 0.000000 -0.000000 0.000000 -1.391942 -3.916521 -2.138318 -2.513597 0.796411 5.977050 2.416674 -7.539252 -3.164858 0.000000 -0.000000 0.000000 0.062818 2.426146 1.834874 3.643232 -4.257662 9.684308 0.381381 0.071312 -7.355177 -1.419831 0.754647 -5.268820 0.530057 -0.724891 0.532789 -31.752150 -2.685461 0.583549 -52.324898 -3.513403 18.481689 5.036018 -16.533597 7.765647 -17.919920 -5.263662 12.795248 33.251694 5.738086 1.954999 46.350890 1.358836 13.282154 -8.872917 16.189897 -2.011349 17.623970 3.818042 7.963928 
0.056877 0.241769 1.009402 86.712000 0.452100 89.799895 2.143770 3.546966 0.727383 1.919213 -3.027948 3.960541 0.650910 11.352146 -6.673582 0.000000 -0.000000 0.000000 -1.368562 -3.884780 -2.128307 -2.506913 0.847254 5.959335 2.381242 -7.557981 -3.201079 0.000000 -0.000000 0.000000 0.055866 2.461083 1.778274 3.656813 -4.246190 9.803599 0.417883 0.068949 -7.353660 -1.381336 0.876387 -5.298208 0.543127 -0.796371 0.652298 -31.727902 -2.900126 0.652024 -52.377464 -3.670234 18.585647 4.885965 -16.757006 8.031142 -18.118195 -5.293327 12.880212 33.361995 5.960970 2.149272 46.369153 1.487105 13.349106 -8.800878 15.909861 -1.948017 17.660516 3.782052 7.911315 
0.057255 0.241591 1.009365 86.781173 0.449054 89.702063 2.172640 3.500713 0.848075 1.900533 -2.996218 3.983296 0.680292 11.320428 -6.673120 0.000000 -0.000000 0.000000 -1.376325 -3.799864 -1.953669 -2.497686 0.734069 5.914021 2.348268 -7.603583 -3.199778 0.000000 -0.000000 0.000000 0.042490 2.412232 1.864452 3.673906 -4.253532 9.862235 0.452453 0.087157 -7.391230 -1.347629 0.934235 -5.357213 0.551745 -0.824168 0.771658 -31.682500 -3.022627 0.735816 -52.346984 -3.858309 18.578947 4.666802 -17.222801 8.364816 -18.410021 -5.268070 12.882351 33.440138 6.119020 2.244616 46.364252 1.524161 13.434674 -8.757115 15.995457 -1.736347 17.841796 3.767893 8.054054 
